{"asset":{"generator":"3D Builder","version":"2.0"},"scene":0,"scenes":[{"nodes":[0]}],"nodes":[{"mesh":0,"matrix":[1.6530745029449463,0,0,0,0,-0.88922739028930664,2.1200835931267648E-7,0,0,-3.9410866747857654E-7,-1.65301513671875,0,-0.057463411241769791,0.0073699643835425377,-0.0078026712872087955,1]}],"meshes":[{"primitives":[{"attributes":{"POSITION":0,"TEXCOORD_0":1},"mode":4,"indices":2,"material":0}]}],"materials":[{"pbrMetallicRoughness":{"baseColorFactor":[1,1,1,1],"metallicFactor":1,"roughnessFactor":1,"baseColorTexture":{"index":0,"texCoord":0},"metallicRoughnessTexture":{"index":1,"texCoord":0}},"alphaMode":"OPAQUE"}],"textures":[{"source":0,"sampler":0},{"source":1,"sampler":0}],"images":[{"uri":"texture_3_bridge.png"},{"uri":"texture_4_bridge.png"}],"samplers":[{"magFilter":9729,"wrapS":10497,"wrapT":10497}],"accessors":[{"bufferView":0,"byteOffset":0,"count":141,"componentType":5126,"type":"VEC3","min":[-0.24218380451202393,-0.1883184015750885,-0.38594314455986023],"max":[0.41816219687461853,0.0082881301641464233,0.37650278210639954]},{"bufferView":1,"byteOffset":0,"count":141,"componentType":5126,"type":"VEC2"},{"bufferView":2,"byteOffset":0,"count":552,"componentType":5125,"type":"SCALAR"}],"bufferViews":[{"buffer":0,"byteOffset":0,"byteLength":1692,"byteStride":12,"target":34962},{"buffer":0,"byteOffset":1692,"byteLength":1128,"byteStride":8,"target":34962},{"buffer":0,"byteOffset":2820,"byteLength":2208,"target":34963}],"buffers":[{"byteLength":5028,"uri":"bridge.bin"}]}