{"asset":{"generator":"3D Builder","version":"2.0"},"scene":0,"scenes":[{"nodes":[0]}],"nodes":[{"mesh":0,"matrix":[2.1651976108551025,0,0,0,0,-1.6376650333404541,3.9044982713676291E-7,0,0,-5.1621009333757684E-7,-2.1651439666748047,0,-0.09979238361120224,0.02488209493458271,-0.036689117550849915,1]}],"meshes":[{"primitives":[{"attributes":{"POSITION":0,"TEXCOORD_0":1},"mode":4,"indices":2,"material":0}]}],"materials":[{"pbrMetallicRoughness":{"baseColorFactor":[1,1,1,1],"metallicFactor":1,"roughnessFactor":1,"baseColorTexture":{"index":0,"texCoord":0},"metallicRoughnessTexture":{"index":1,"texCoord":0}},"alphaMode":"OPAQUE"}],"textures":[{"source":0,"sampler":0},{"source":1,"sampler":0}],"images":[{"uri":"../textures/texture_3_bridge.png"},{"uri":"../textures/texture_4_bridge.png"}],"samplers":[{"magFilter":9729,"wrapS":10497,"wrapT":10497}],"accessors":[{"bufferView":0,"byteOffset":0,"count":106,"componentType":5126,"type":"VEC3","min":[-0.23572105169296265,-0.11014950275421143,-0.40284022688865662],"max":[0.40700951218605042,0.01519341766834259,0.36894962191581726]},{"bufferView":1,"byteOffset":0,"count":106,"componentType":5126,"type":"VEC2"},{"bufferView":2,"byteOffset":0,"count":456,"componentType":5125,"type":"SCALAR"}],"bufferViews":[{"buffer":0,"byteOffset":0,"byteLength":1272,"byteStride":12,"target":34962},{"buffer":0,"byteOffset":1272,"byteLength":848,"byteStride":8,"target":34962},{"buffer":0,"byteOffset":2120,"byteLength":1824,"target":34963}],"buffers":[{"byteLength":3944,"uri":"bridge.bin"}]}
