{
   "asset":{
      "generator":"3D Builder",
      "version":"2.0"
   },
   "scene":0,
   "scenes":[
      {
         "nodes":[
            0
         ]
      }
   ],
   "nodes":[
      {
         "mesh":0,
         "matrix":[
            1.0000002384185791,
            -2.758985891345453E-16,
            -2.3144048899581549E-9,
            0,
            -1.8003156745331067E-14,
            -0.99999958276748657,
            2.3841850804728892E-7,
            0,
            1.7177804068069236E-8,
            -2.384185791015625E-7,
            -0.9999997615814209,
            0,
            -4.4282968403308587E-9,
            1.2495936155319214,
            -0.0096241729333996773,
            1
         ]
      }
   ],
   "meshes":[
      {
         "primitives":[
            {
               "attributes":{
                  "POSITION":0,
                  "TEXCOORD_0":1
               },
               "mode":4,
               "indices":2,
               "material":0
            }
         ]
      }
   ],
   "materials":[
      {
         "pbrMetallicRoughness":{
            "baseColorFactor":[
               1,
               1,
               1,
               1
            ],
            "metallicFactor":1,
            "roughnessFactor":1,
            "baseColorTexture":{
               "index":0,
               "texCoord":0
            },
            "metallicRoughnessTexture":{
               "index":1,
               "texCoord":0
            }
         },
         "alphaMode":"OPAQUE"
      }
   ],
   "textures":[
      {
         "source":0,
         "sampler":0
      },
      {
         "source":1,
         "sampler":0
      }
   ],
   "images":[
      {
         "uri":"texture_3_bridge.png"
      },
      {
         "uri":"texture_4_bridge.png"
      }
   ],
   "samplers":[
      {
         "magFilter":9729,
         "wrapS":10497,
         "wrapT":10497
      }
   ],
   "accessors":[
      {
         "bufferView":0,
         "byteOffset":0,
         "count":27,
         "componentType":5126,
         "type":"VEC3",
         "min":[
            -0.32859164476394653,
            -0.14082559943199158,
            -0.49727699160575867
         ],
         "max":[
            0.51330041885375977,
            0.030261099338531494,
            0.47802898287773132
         ]
      },
      {
         "bufferView":1,
         "byteOffset":0,
         "count":27,
         "componentType":5126,
         "type":"VEC2"
      },
      {
         "bufferView":2,
         "byteOffset":0,
         "count":96,
         "componentType":5125,
         "type":"SCALAR"
      }
   ],
   "bufferViews":[
      {
         "buffer":0,
         "byteOffset":0,
         "byteLength":324,
         "byteStride":12,
         "target":34962
      },
      {
         "buffer":0,
         "byteOffset":324,
         "byteLength":216,
         "byteStride":8,
         "target":34962
      },
      {
         "buffer":0,
         "byteOffset":540,
         "byteLength":384,
         "target":34963
      }
   ],
   "buffers":[
      {
         "byteLength":924,
         "uri":"infiniteBridge.bin"
      }
   ]
}
