{
    "asset": {
        "version": "2.0",
        "generator": "THREE.GLTFExporter"
    },
    "scenes": [
        {
            "nodes": [
                2
            ],
            "name": "AuxScene"
        }
    ],
    "scene": 0,
    "nodes": [
        {
            "name": "entity_2",
            "mesh": 0
        },
        {
            "matrix": [
                1,
                0,
                0,
                0,
                0,
                -3.552713678800501e-15,
                -1,
                0,
                0,
                1,
                -3.552713678800501e-15,
                0,
                0,
                0,
                0,
                1
            ],
            "name": "entity_1",
            "children": [
                0
            ]
        },
        {
            "name": "entity_0",
            "children": [
                1
            ]
        }
    ],
    "bufferViews": [
        {
            "buffer": 0,
            "byteOffset": 0,
            "byteLength": 11518632,
            "target": 34962,
            "byteStride": 12
        },
        {
            "buffer": 0,
            "byteOffset": 11518632,
            "byteLength": 11518632,
            "target": 34962,
            "byteStride": 12
        },
        {
            "buffer": 0,
            "byteOffset": 23037264,
            "byteLength": 11518632,
            "target": 34962,
            "byteStride": 12
        },
        {
            "buffer": 0,
            "byteOffset": 34555896,
            "byteLength": 3839544,
            "target": 34963
        }
    ],
    "buffers": [
        {
            "byteLength": 38395440,
            "uri": "mbot.bin",
            "name": "mbot.bin"
        }
    ],
    "accessors": [
        {
            "bufferView": 0,
            "componentType": 5126,
            "count": 959886,
            "max": [
                138.7738037109375,
                107.29720306396484,
                41.39149856567383
            ],
            "min": [
                -26.796899795532227,
                -21.297100067138672,
                -47.32749938964844
            ],
            "type": "VEC3"
        },
        {
            "bufferView": 1,
            "componentType": 5126,
            "count": 959886,
            "max": [
                1,
                1,
                1
            ],
            "min": [
                -1,
                -1,
                -1
            ],
            "type": "VEC3"
        },
        {
            "bufferView": 2,
            "componentType": 5126,
            "count": 959886,
            "max": [
                1,
                1,
                1
            ],
            "min": [
                0,
                0,
                0
            ],
            "type": "VEC3"
        },
        {
            "bufferView": 3,
            "componentType": 5125,
            "count": 959886,
            "max": [
                959885
            ],
            "min": [
                0
            ],
            "type": "SCALAR"
        }
    ],
    "materials": [
        {
            "pbrMetallicRoughness": {
                "metallicFactor": 0.5,
                "roughnessFactor": 0.5
            },
            "name": "entity_3"
        }
    ],
    "meshes": [
        {
            "primitives": [
                {
                    "mode": 4,
                    "attributes": {
                        "POSITION": 0,
                        "NORMAL": 1,
                        "COLOR_0": 2
                    },
                    "indices": 3,
                    "material": 0
                }
            ]
        }
    ]
}