{
    "asset" : {
        "generator" : "Khronos glTF Blender I/O v0.9.36",
        "version" : "2.0"
    },
    "scene" : 0,
    "scenes" : [
        {
            "name" : "Scene",
            "nodes" : [
                0,
                1,
                2,
                3
            ]
        }
    ],
    "nodes" : [
        {
            "name" : "Camera",
            "rotation" : [
                0.483536034822464,
                0.33687159419059753,
                -0.20870360732078552,
                0.7804827094078064
            ],
            "translation" : [
                7.358891487121582,
                4.958309173583984,
                6.925790786743164
            ]
        },
        {
            "name" : "Low-Poly_Models",
            "rotation" : [
                0.7071068286895752,
                0,
                0,
                0.7071067094802856
            ]
        },
        {
            "mesh" : 0,
            "name" : "Icosphere.024",
            "rotation" : [
                0.7071068286895752,
                0,
                0,
                0.7071067094802856
            ],
            "translation" : [
                0,
                0,
                11.185300827026367
            ]
        },
        {
            "mesh" : 1,
            "name" : "Icosphere.025",
            "rotation" : [
                0.7071068286895752,
                0,
                0,
                0.7071067094802856
            ],
            "translation" : [
                0,
                0,
                11.185300827026367
            ]
        }
    ],
    "materials" : [
        {
            "doubleSided" : true,
            "name" : "Material.070",
            "pbrMetallicRoughness" : {
                "baseColorFactor" : [
                    0.05033800005912781,
                    0.3074969947338104,
                    0.033955998718738556,
                    1
                ],
                "metallicFactor" : 0,
                "roughnessFactor" : 0.6766191720962524
            }
        },
        {
            "doubleSided" : true,
            "name" : "Material.071",
            "pbrMetallicRoughness" : {
                "baseColorFactor" : [
                    0.05033800005912781,
                    0.3074969947338104,
                    0.033955998718738556,
                    1
                ],
                "metallicFactor" : 0,
                "roughnessFactor" : 0.6766191720962524
            }
        }
    ],
    "meshes" : [
        {
            "name" : "Icosphere.024",
            "primitives" : [
                {
                    "attributes" : {
                        "POSITION" : 0,
                        "NORMAL" : 1
                    },
                    "indices" : 2,
                    "material" : 0
                }
            ]
        },
        {
            "name" : "Icosphere.025",
            "primitives" : [
                {
                    "attributes" : {
                        "POSITION" : 3,
                        "NORMAL" : 4
                    },
                    "indices" : 2,
                    "material" : 1
                }
            ]
        }
    ],
    "accessors" : [
        {
            "bufferView" : 0,
            "componentType" : 5126,
            "count" : 240,
            "max" : [
                0.8060309886932373,
                -11.698689460754395,
                0.8439059853553772
            ],
            "min" : [
                -0.747759997844696,
                -13.332438468933105,
                -0.7898430228233337
            ],
            "type" : "VEC3"
        },
        {
            "bufferView" : 1,
            "componentType" : 5126,
            "count" : 240,
            "type" : "VEC3"
        },
        {
            "bufferView" : 2,
            "componentType" : 5123,
            "count" : 240,
            "type" : "SCALAR"
        },
        {
            "bufferView" : 3,
            "componentType" : 5126,
            "count" : 240,
            "max" : [
                1.4886000156402588,
                -9.13438606262207,
                1.7834969758987427
            ],
            "min" : [
                -1.7341179847717285,
                -12.522945404052734,
                -1.6050610542297363
            ],
            "type" : "VEC3"
        },
        {
            "bufferView" : 4,
            "componentType" : 5126,
            "count" : 240,
            "type" : "VEC3"
        }
    ],
    "bufferViews" : [
        {
            "buffer" : 0,
            "byteLength" : 2880,
            "byteOffset" : 0
        },
        {
            "buffer" : 0,
            "byteLength" : 2880,
            "byteOffset" : 2880
        },
        {
            "buffer" : 0,
            "byteLength" : 480,
            "byteOffset" : 5760
        },
        {
            "buffer" : 0,
            "byteLength" : 2880,
            "byteOffset" : 6240
        },
        {
            "buffer" : 0,
            "byteLength" : 2880,
            "byteOffset" : 9120
        }
    ],
    "buffers" : [
        {
            "byteLength" : 12000,
            "uri" : "data:application/octet-stream;base64,"
        }
    ]
}
