{
    "asset" : {
        "generator" : "Khronos glTF Blender I/O v0.9.36",
        "version" : "2.0"
    },
    "scene" : 0,
    "scenes" : [
        {
            "name" : "Scene",
            "nodes" : [
                0,
                1,
                2,
                3
            ]
        }
    ],
    "nodes" : [
        {
            "name" : "Camera",
            "rotation" : [
                0.483536034822464,
                0.33687159419059753,
                -0.20870360732078552,
                0.7804827094078064
            ],
            "translation" : [
                7.535209655761719,
                4.82897424697876,
                6.960837364196777
            ]
        },
        {
            "mesh" : 0,
            "name" : "caillou1_Icosphere",
            "rotation" : [
                0.7071068286895752,
                0,
                0,
                0.7071067094802856
            ]
        },
        {
            "mesh" : 1,
            "name" : "caillou2_Icosphere.001",
            "rotation" : [
                0.7071068286895752,
                0,
                0,
                0.7071067094802856
            ],
            "translation" : [
                -2.2305994033813477,
                -0.12933476269245148,
                -4.121864318847656
            ]
        },
        {
            "mesh" : 2,
            "name" : "Caillou3_Icosphere.002",
            "rotation" : [
                0.7071068286895752,
                0,
                0,
                0.7071067094802856
            ],
            "translation" : [
                -2.581458568572998,
                -0.12933476269245148,
                -1.8226795196533203
            ]
        }
    ],
    "materials" : [
        {
            "doubleSided" : true,
            "name" : "Material.004",
            "pbrMetallicRoughness" : {
                "baseColorFactor" : [
                    0.058587998151779175,
                    0.058587998151779175,
                    0.058587998151779175,
                    1
                ],
                "metallicFactor" : 0,
                "roughnessFactor" : 0.6732679605484009
            }
        },
        {
            "doubleSided" : true,
            "name" : "Material.005",
            "pbrMetallicRoughness" : {
                "baseColorFactor" : [
                    0.058587998151779175,
                    0.058587998151779175,
                    0.058587998151779175,
                    1
                ],
                "metallicFactor" : 0,
                "roughnessFactor" : 0.6732679605484009
            }
        },
        {
            "doubleSided" : true,
            "name" : "Material.006",
            "pbrMetallicRoughness" : {
                "baseColorFactor" : [
                    0.058587998151779175,
                    0.058587998151779175,
                    0.058587998151779175,
                    1
                ],
                "metallicFactor" : 0,
                "roughnessFactor" : 0.6732679605484009
            }
        }
    ],
    "meshes" : [
        {
            "name" : "caillou1_Icosphere",
            "primitives" : [
                {
                    "attributes" : {
                        "POSITION" : 0,
                        "NORMAL" : 1
                    },
                    "indices" : 2,
                    "material" : 0
                }
            ]
        },
        {
            "name" : "caillou2_Icosphere.001",
            "primitives" : [
                {
                    "attributes" : {
                        "POSITION" : 3,
                        "NORMAL" : 4
                    },
                    "indices" : 5,
                    "material" : 1
                }
            ]
        },
        {
            "name" : "Caillou3_Icosphere.002",
            "primitives" : [
                {
                    "attributes" : {
                        "POSITION" : 6,
                        "NORMAL" : 7
                    },
                    "indices" : 8,
                    "material" : 2
                }
            ]
        }
    ],
    "accessors" : [
        {
            "bufferView" : 0,
            "componentType" : 5126,
            "count" : 229,
            "max" : [
                1.021876573562622,
                0.4003089666366577,
                0.2552099823951721
            ],
            "min" : [
                0.211126446723938,
                -0.2996220588684082,
                -0.16081200540065765
            ],
            "type" : "VEC3"
        },
        {
            "bufferView" : 1,
            "componentType" : 5126,
            "count" : 229,
            "type" : "VEC3"
        },
        {
            "bufferView" : 2,
            "componentType" : 5123,
            "count" : 240,
            "type" : "SCALAR"
        },
        {
            "bufferView" : 3,
            "componentType" : 5126,
            "count" : 240,
            "max" : [
                2.1772420406341553,
                3.5192949771881104,
                0.08549399673938751
            ],
            "min" : [
                1.56392502784729,
                3.022926092147827,
                -0.19888199865818024
            ],
            "type" : "VEC3"
        },
        {
            "bufferView" : 4,
            "componentType" : 5126,
            "count" : 240,
            "type" : "VEC3"
        },
        {
            "bufferView" : 5,
            "componentType" : 5123,
            "count" : 240,
            "type" : "SCALAR"
        },
        {
            "bufferView" : 6,
            "componentType" : 5126,
            "count" : 235,
            "max" : [
                2.3267879486083984,
                2.6020898818969727,
                0.11102700233459473
            ],
            "min" : [
                1.6717519760131836,
                1.9571969509124756,
                -0.2653310000896454
            ],
            "type" : "VEC3"
        },
        {
            "bufferView" : 7,
            "componentType" : 5126,
            "count" : 235,
            "type" : "VEC3"
        },
        {
            "bufferView" : 8,
            "componentType" : 5123,
            "count" : 240,
            "type" : "SCALAR"
        }
    ],
    "bufferViews" : [
        {
            "buffer" : 0,
            "byteLength" : 2748,
            "byteOffset" : 0
        },
        {
            "buffer" : 0,
            "byteLength" : 2748,
            "byteOffset" : 2748
        },
        {
            "buffer" : 0,
            "byteLength" : 480,
            "byteOffset" : 5496
        },
        {
            "buffer" : 0,
            "byteLength" : 2880,
            "byteOffset" : 5976
        },
        {
            "buffer" : 0,
            "byteLength" : 2880,
            "byteOffset" : 8856
        },
        {
            "buffer" : 0,
            "byteLength" : 480,
            "byteOffset" : 11736
        },
        {
            "buffer" : 0,
            "byteLength" : 2820,
            "byteOffset" : 12216
        },
        {
            "buffer" : 0,
            "byteLength" : 2820,
            "byteOffset" : 15036
        },
        {
            "buffer" : 0,
            "byteLength" : 480,
            "byteOffset" : 17856
        }
    ],
    "buffers" : [
        {
            "byteLength" : 18336,
            "uri" : "data:application/octet-stream;base64,"
        }
    ]
}
