{
    "asset" : {
        "generator" : "Khronos glTF Blender I/O v0.9.36",
        "version" : "2.0"
    },
    "scene" : 0,
    "scenes" : [
        {
            "name" : "Scene",
            "nodes" : [
                0
            ]
        }
    ],
    "nodes" : [
        {
            "mesh" : 0,
            "name" : "Arbre_Normal_Cylinder.002",
            "rotation" : [
                0.7071068286895752,
                0,
                0,
                0.7071067094802856
            ]
        }
    ],
    "materials" : [
        {
            "doubleSided" : true,
            "name" : "troc",
            "pbrMetallicRoughness" : {
                "baseColorFactor" : [
                    0.046243999153375626,
                    0.031637001782655716,
                    0.010962000116705894,
                    1
                ],
                "metallicFactor" : 0,
                "roughnessFactor" : 0.6732679605484009
            }
        },
        {
            "doubleSided" : true,
            "name" : "Material.001",
            "pbrMetallicRoughness" : {
                "baseColorFactor" : [
                    0.27736300230026245,
                    0.4466719925403595,
                    0.072673000395298,
                    1
                ],
                "metallicFactor" : 0,
                "roughnessFactor" : 0.6732679605484009
            }
        },
        {
            "doubleSided" : true,
            "name" : "Material.002",
            "pbrMetallicRoughness" : {
                "baseColorFactor" : [
                    0.2231149971485138,
                    0.2231149971485138,
                    0.018523000180721283,
                    1
                ],
                "metallicFactor" : 0,
                "roughnessFactor" : 0.6732679605484009
            }
        },
        {
            "doubleSided" : true,
            "name" : "Material.003",
            "pbrMetallicRoughness" : {
                "baseColorFactor" : [
                    0.6399999856948853,
                    0.6399999856948853,
                    0.6399999856948853,
                    1
                ],
                "metallicFactor" : 0,
                "roughnessFactor" : 0.6732679605484009
            }
        }
    ],
    "meshes" : [
        {
            "name" : "Arbre_Normal_Cylinder.002",
            "primitives" : [
                {
                    "attributes" : {
                        "POSITION" : 0,
                        "NORMAL" : 1
                    },
                    "indices" : 2,
                    "material" : 0
                },
                {
                    "attributes" : {
                        "POSITION" : 3,
                        "NORMAL" : 4
                    },
                    "indices" : 5,
                    "material" : 1
                },
                {
                    "attributes" : {
                        "POSITION" : 6,
                        "NORMAL" : 7
                    },
                    "indices" : 5,
                    "material" : 2
                },
                {
                    "attributes" : {
                        "POSITION" : 8,
                        "NORMAL" : 9
                    },
                    "indices" : 10,
                    "material" : 3
                }
            ]
        }
    ],
    "accessors" : [
        {
            "bufferView" : 0,
            "componentType" : 5126,
            "count" : 718,
            "max" : [
                2.0838959217071533,
                1.055685043334961,
                0.20726600289344788
            ],
            "min" : [
                -0.20964999496936798,
                -0.9339069724082947,
                -3.3209939002990723
            ],
            "type" : "VEC3"
        },
        {
            "bufferView" : 1,
            "componentType" : 5126,
            "count" : 718,
            "type" : "VEC3"
        },
        {
            "bufferView" : 2,
            "componentType" : 5123,
            "count" : 1092,
            "type" : "SCALAR"
        },
        {
            "bufferView" : 3,
            "componentType" : 5126,
            "count" : 720,
            "max" : [
                2.053955078125,
                1.401263952255249,
                -1.8854049444198608
            ],
            "min" : [
                -0.7689260244369507,
                -1.2617219686508179,
                -3.7110860347747803
            ],
            "type" : "VEC3"
        },
        {
            "bufferView" : 4,
            "componentType" : 5126,
            "count" : 720,
            "type" : "VEC3"
        },
        {
            "bufferView" : 5,
            "componentType" : 5123,
            "count" : 720,
            "type" : "SCALAR"
        },
        {
            "bufferView" : 6,
            "componentType" : 5126,
            "count" : 720,
            "max" : [
                2.4114160537719727,
                1.3902759552001953,
                -2.0685648918151855
            ],
            "min" : [
                -0.009782999753952026,
                -0.7418680191040039,
                -3.2739129066467285
            ],
            "type" : "VEC3"
        },
        {
            "bufferView" : 7,
            "componentType" : 5126,
            "count" : 720,
            "type" : "VEC3"
        },
        {
            "bufferView" : 8,
            "componentType" : 5126,
            "count" : 480,
            "max" : [
                1.9115420579910278,
                0.4753530025482178,
                -1.2879999876022339
            ],
            "min" : [
                -0.26851698756217957,
                -1.346168041229248,
                -2.8299620151519775
            ],
            "type" : "VEC3"
        },
        {
            "bufferView" : 9,
            "componentType" : 5126,
            "count" : 480,
            "type" : "VEC3"
        },
        {
            "bufferView" : 10,
            "componentType" : 5123,
            "count" : 480,
            "type" : "SCALAR"
        }
    ],
    "bufferViews" : [
        {
            "buffer" : 0,
            "byteLength" : 8616,
            "byteOffset" : 0
        },
        {
            "buffer" : 0,
            "byteLength" : 8616,
            "byteOffset" : 8616
        },
        {
            "buffer" : 0,
            "byteLength" : 2184,
            "byteOffset" : 17232
        },
        {
            "buffer" : 0,
            "byteLength" : 8640,
            "byteOffset" : 19416
        },
        {
            "buffer" : 0,
            "byteLength" : 8640,
            "byteOffset" : 28056
        },
        {
            "buffer" : 0,
            "byteLength" : 1440,
            "byteOffset" : 36696
        },
        {
            "buffer" : 0,
            "byteLength" : 8640,
            "byteOffset" : 38136
        },
        {
            "buffer" : 0,
            "byteLength" : 8640,
            "byteOffset" : 46776
        },
        {
            "buffer" : 0,
            "byteLength" : 5760,
            "byteOffset" : 55416
        },
        {
            "buffer" : 0,
            "byteLength" : 5760,
            "byteOffset" : 61176
        },
        {
            "buffer" : 0,
            "byteLength" : 960,
            "byteOffset" : 66936
        }
    ],
    "buffers" : [
        {
            "byteLength" : 67896,
            "uri" : "data:application/octet-stream;base64,"
        }
    ]
}
