{
    "asset" : {
        "generator" : "Khronos glTF Blender I/O v0.9.36",
        "version" : "2.0"
    },
    "scene" : 0,
    "scenes" : [
        {
            "name" : "Scene",
            "nodes" : [
                0,
                1,
                2,
                3,
                4
            ]
        }
    ],
    "nodes" : [
        {
            "name" : "Light",
            "rotation" : [
                0.16907575726509094,
                0.7558803558349609,
                -0.27217137813568115,
                0.570947527885437
            ],
            "translation" : [
                4.076245307922363,
                5.903861999511719,
                -1.0054539442062378
            ]
        },
        {
            "name" : "Camera",
            "rotation" : [
                0.483536034822464,
                0.33687159419059753,
                -0.20870360732078552,
                0.7804827094078064
            ],
            "translation" : [
                7.358891487121582,
                4.958309173583984,
                6.925790786743164
            ]
        },
        {
            "name" : "Camera.001",
            "rotation" : [
                0.8937963247299194,
                0.09062855690717697,
                -0.3857799172401428,
                0.20997287333011627
            ],
            "translation" : [
                7.358891487121582,
                4.958308696746826,
                6.925792217254639
            ]
        },
        {
            "name" : "Camera.002",
            "rotation" : [
                0.8937963247299194,
                0.09062855690717697,
                -0.3857799172401428,
                0.20997287333011627
            ],
            "translation" : [
                7.535209655761719,
                4.828973770141602,
                6.960838794708252
            ]
        },
        {
            "mesh" : 0,
            "name" : "Arbre_Automne_Cylinder.003",
            "rotation" : [
                1,
                0,
                0,
                -1.3435885648505064e-07
            ],
            "translation" : [
                -0.04761967062950134,
                1.7666195631027222,
                0.0704193115234375
            ]
        }
    ],
    "materials" : [
        {
            "doubleSided" : true,
            "name" : "troc.001",
            "pbrMetallicRoughness" : {
                "baseColorFactor" : [
                    0.046243999153375626,
                    0.031637001782655716,
                    0.010962000116705894,
                    1
                ],
                "metallicFactor" : 0,
                "roughnessFactor" : 0.6732679605484009
            }
        }
    ],
    "meshes" : [
        {
            "name" : "Arbre_Automne_Cylinder.003",
            "primitives" : [
                {
                    "attributes" : {
                        "POSITION" : 0,
                        "NORMAL" : 1
                    },
                    "indices" : 2,
                    "material" : 0
                }
            ]
        }
    ],
    "accessors" : [
        {
            "bufferView" : 0,
            "componentType" : 5126,
            "count" : 870,
            "max" : [
                0.8989344239234924,
                1.8865231275558472,
                1.0709344148635864
            ],
            "min" : [
                -1.4675265550613403,
                -1.641737937927246,
                -1.0937085151672363
            ],
            "type" : "VEC3"
        },
        {
            "bufferView" : 1,
            "componentType" : 5126,
            "count" : 870,
            "type" : "VEC3"
        },
        {
            "bufferView" : 2,
            "componentType" : 5123,
            "count" : 1092,
            "type" : "SCALAR"
        }
    ],
    "bufferViews" : [
        {
            "buffer" : 0,
            "byteLength" : 10440,
            "byteOffset" : 0
        },
        {
            "buffer" : 0,
            "byteLength" : 10440,
            "byteOffset" : 10440
        },
        {
            "buffer" : 0,
            "byteLength" : 2184,
            "byteOffset" : 20880
        }
    ],
    "buffers" : [
        {
            "byteLength" : 23064,
            "uri" : "data:application/octet-stream;base64,"
        }
    ]
}
