{
    "asset" : {
        "generator" : "Khronos glTF Blender I/O v0.9.36",
        "version" : "2.0"
    },
    "scene" : 0,
    "scenes" : [
        {
            "name" : "Scene",
            "nodes" : [
                0,
                1
            ]
        }
    ],
    "nodes" : [
        {
            "name" : "Low-Poly_Models",
            "rotation" : [
                0.7071068286895752,
                0,
                0,
                0.7071067094802856
            ]
        },
        {
            "mesh" : 0,
            "name" : "Icosphere.027",
            "rotation" : [
                0.7071068286895752,
                0,
                0,
                0.7071067094802856
            ],
            "translation" : [
                -0.3121013343334198,
                0,
                -0.06680557131767273
            ]
        }
    ],
    "materials" : [
        {
            "doubleSided" : true,
            "name" : "Material.106",
            "pbrMetallicRoughness" : {
                "baseColorFactor" : [
                    0.19695499539375305,
                    0.03169500082731247,
                    0.00521499989554286,
                    1
                ],
                "metallicFactor" : 0,
                "roughnessFactor" : 0.6766191720962524
            }
        },
        {
            "doubleSided" : true,
            "name" : "Material.107",
            "pbrMetallicRoughness" : {
                "baseColorFactor" : [
                    0.07427600026130676,
                    0.3815920054912567,
                    0.00812000036239624,
                    1
                ],
                "metallicFactor" : 0,
                "roughnessFactor" : 0.6766191720962524
            }
        }
    ],
    "meshes" : [
        {
            "name" : "Icosphere.027",
            "primitives" : [
                {
                    "attributes" : {
                        "POSITION" : 0,
                        "NORMAL" : 1
                    },
                    "indices" : 2,
                    "material" : 0
                },
                {
                    "attributes" : {
                        "POSITION" : 3,
                        "NORMAL" : 4
                    },
                    "indices" : 5,
                    "material" : 1
                }
            ]
        }
    ],
    "accessors" : [
        {
            "bufferView" : 0,
            "componentType" : 5126,
            "count" : 30,
            "max" : [
                0.4860086441040039,
                0.17246341705322266,
                -0.14936022460460663
            ],
            "min" : [
                0.09300947189331055,
                -0.20130062103271484,
                -0.8427861928939819
            ],
            "type" : "VEC3"
        },
        {
            "bufferView" : 1,
            "componentType" : 5126,
            "count" : 30,
            "type" : "VEC3"
        },
        {
            "bufferView" : 2,
            "componentType" : 5123,
            "count" : 48,
            "type" : "SCALAR"
        },
        {
            "bufferView" : 3,
            "componentType" : 5126,
            "count" : 240,
            "max" : [
                0.6713128089904785,
                0.40676212310791016,
                -0.5814942121505737
            ],
            "min" : [
                -0.09229421615600586,
                -0.39614009857177734,
                -3.2489700317382812
            ],
            "type" : "VEC3"
        },
        {
            "bufferView" : 4,
            "componentType" : 5126,
            "count" : 240,
            "type" : "VEC3"
        },
        {
            "bufferView" : 5,
            "componentType" : 5123,
            "count" : 240,
            "type" : "SCALAR"
        }
    ],
    "bufferViews" : [
        {
            "buffer" : 0,
            "byteLength" : 360,
            "byteOffset" : 0
        },
        {
            "buffer" : 0,
            "byteLength" : 360,
            "byteOffset" : 360
        },
        {
            "buffer" : 0,
            "byteLength" : 96,
            "byteOffset" : 720
        },
        {
            "buffer" : 0,
            "byteLength" : 2880,
            "byteOffset" : 816
        },
        {
            "buffer" : 0,
            "byteLength" : 2880,
            "byteOffset" : 3696
        },
        {
            "buffer" : 0,
            "byteLength" : 480,
            "byteOffset" : 6576
        }
    ],
    "buffers" : [
        {
            "byteLength" : 7056,
            "uri" : "data:application/octet-stream;base64,"
        }
    ]
}
