{
    "asset" : {
        "generator" : "Khronos glTF Blender I/O v0.9.36",
        "version" : "2.0"
    },
    "scene" : 0,
    "scenes" : [
        {
            "name" : "Scene",
            "nodes" : [
                0,
                1,
                2
            ]
        }
    ],
    "nodes" : [
        {
            "name" : "Light",
            "rotation" : [
                0.16907575726509094,
                0.7558803558349609,
                -0.27217137813568115,
                0.570947527885437
            ],
            "translation" : [
                4.076245307922363,
                5.903861999511719,
                -1.0054539442062378
            ]
        },
        {
            "name" : "Camera",
            "rotation" : [
                0.483536034822464,
                0.33687159419059753,
                -0.20870360732078552,
                0.7804827094078064
            ],
            "translation" : [
                7.358891487121582,
                4.958309173583984,
                6.925790786743164
            ]
        },
        {
            "mesh" : 0,
            "name" : "Arbre_Normal_Cylinder.002",
            "rotation" : [
                1,
                0,
                0,
                -1.3435885648505064e-07
            ]
        }
    ],
    "materials" : [
        {
            "doubleSided" : true,
            "name" : "troc",
            "pbrMetallicRoughness" : {
                "baseColorFactor" : [
                    0.046243999153375626,
                    0.031637001782655716,
                    0.010962000116705894,
                    1
                ],
                "metallicFactor" : 0,
                "roughnessFactor" : 0.6732679605484009
            }
        },
        {
            "doubleSided" : true,
            "name" : "Material.001",
            "pbrMetallicRoughness" : {
                "baseColorFactor" : [
                    0.27736300230026245,
                    0.4466719925403595,
                    0.072673000395298,
                    1
                ],
                "metallicFactor" : 0,
                "roughnessFactor" : 0.6732679605484009
            }
        },
        {
            "doubleSided" : true,
            "name" : "Material.002",
            "pbrMetallicRoughness" : {
                "baseColorFactor" : [
                    0.2231149971485138,
                    0.2231149971485138,
                    0.018523000180721283,
                    1
                ],
                "metallicFactor" : 0,
                "roughnessFactor" : 0.6732679605484009
            }
        },
        {
            "doubleSided" : true,
            "name" : "Material.003",
            "pbrMetallicRoughness" : {
                "baseColorFactor" : [
                    0.6399999856948853,
                    0.6399999856948853,
                    0.6399999856948853,
                    1
                ],
                "metallicFactor" : 0,
                "roughnessFactor" : 0.6732679605484009
            }
        }
    ],
    "meshes" : [
        {
            "name" : "Arbre_Normal_Cylinder.002",
            "primitives" : [
                {
                    "attributes" : {
                        "POSITION" : 0,
                        "NORMAL" : 1
                    },
                    "indices" : 2,
                    "material" : 0
                },
                {
                    "attributes" : {
                        "POSITION" : 3,
                        "NORMAL" : 4
                    },
                    "indices" : 5,
                    "material" : 1
                },
                {
                    "attributes" : {
                        "POSITION" : 6,
                        "NORMAL" : 7
                    },
                    "indices" : 5,
                    "material" : 2
                },
                {
                    "attributes" : {
                        "POSITION" : 8,
                        "NORMAL" : 9
                    },
                    "indices" : 10,
                    "material" : 3
                }
            ]
        }
    ],
    "accessors" : [
        {
            "bufferView" : 0,
            "componentType" : 5126,
            "count" : 870,
            "max" : [
                0.9956762790679932,
                0.20726609230041504,
                0.8400558233261108
            ],
            "min" : [
                -1.2978696823120117,
                -3.320993661880493,
                -1.1495361328125
            ],
            "type" : "VEC3"
        },
        {
            "bufferView" : 1,
            "componentType" : 5126,
            "count" : 870,
            "type" : "VEC3"
        },
        {
            "bufferView" : 2,
            "componentType" : 5123,
            "count" : 1092,
            "type" : "SCALAR"
        },
        {
            "bufferView" : 3,
            "componentType" : 5126,
            "count" : 720,
            "max" : [
                0.9657354354858398,
                -1.8854048252105713,
                1.1678708791732788
            ],
            "min" : [
                -1.8571456670761108,
                -3.711085796356201,
                -1.495115041732788
            ],
            "type" : "VEC3"
        },
        {
            "bufferView" : 4,
            "componentType" : 5126,
            "count" : 720,
            "type" : "VEC3"
        },
        {
            "bufferView" : 5,
            "componentType" : 5123,
            "count" : 720,
            "type" : "SCALAR"
        },
        {
            "bufferView" : 6,
            "componentType" : 5126,
            "count" : 720,
            "max" : [
                1.3231964111328125,
                -2.0685646533966064,
                0.6480168700218201
            ],
            "min" : [
                -1.0980026721954346,
                -3.2739126682281494,
                -1.4841270446777344
            ],
            "type" : "VEC3"
        },
        {
            "bufferView" : 7,
            "componentType" : 5126,
            "count" : 720,
            "type" : "VEC3"
        },
        {
            "bufferView" : 8,
            "componentType" : 5126,
            "count" : 480,
            "max" : [
                0.8233224153518677,
                -1.2879997491836548,
                1.252316951751709
            ],
            "min" : [
                -1.356736660003662,
                -2.8299617767333984,
                -0.5692041516304016
            ],
            "type" : "VEC3"
        },
        {
            "bufferView" : 9,
            "componentType" : 5126,
            "count" : 480,
            "type" : "VEC3"
        },
        {
            "bufferView" : 10,
            "componentType" : 5123,
            "count" : 480,
            "type" : "SCALAR"
        }
    ],
    "bufferViews" : [
        {
            "buffer" : 0,
            "byteLength" : 10440,
            "byteOffset" : 0
        },
        {
            "buffer" : 0,
            "byteLength" : 10440,
            "byteOffset" : 10440
        },
        {
            "buffer" : 0,
            "byteLength" : 2184,
            "byteOffset" : 20880
        },
        {
            "buffer" : 0,
            "byteLength" : 8640,
            "byteOffset" : 23064
        },
        {
            "buffer" : 0,
            "byteLength" : 8640,
            "byteOffset" : 31704
        },
        {
            "buffer" : 0,
            "byteLength" : 1440,
            "byteOffset" : 40344
        },
        {
            "buffer" : 0,
            "byteLength" : 8640,
            "byteOffset" : 41784
        },
        {
            "buffer" : 0,
            "byteLength" : 8640,
            "byteOffset" : 50424
        },
        {
            "buffer" : 0,
            "byteLength" : 5760,
            "byteOffset" : 59064
        },
        {
            "buffer" : 0,
            "byteLength" : 5760,
            "byteOffset" : 64824
        },
        {
            "buffer" : 0,
            "byteLength" : 960,
            "byteOffset" : 70584
        }
    ],
    "buffers" : [
        {
            "byteLength" : 71544,
            "uri" : "data:application/octet-stream;base64,"
        }
    ]
}
