{
    "asset" : {
        "generator" : "Khronos glTF Blender I/O v0.9.36",
        "version" : "2.0"
    },
    "scene" : 0,
    "scenes" : [
        {
            "name" : "Scene",
            "nodes" : [
                0,
                1,
                2,
                3,
                4,
                5,
                6,
                7
            ]
        }
    ],
    "nodes" : [
        {
            "name" : "Light",
            "rotation" : [
                0.16907575726509094,
                0.7558803558349609,
                -0.27217137813568115,
                0.570947527885437
            ],
            "translation" : [
                4.076245307922363,
                5.903861999511719,
                -1.0054539442062378
            ]
        },
        {
            "name" : "Camera",
            "rotation" : [
                0.483536034822464,
                0.33687159419059753,
                -0.20870360732078552,
                0.7804827094078064
            ],
            "translation" : [
                7.358891487121582,
                4.958309173583984,
                6.925790786743164
            ]
        },
        {
            "name" : "Camera.001",
            "rotation" : [
                0.8937963247299194,
                0.09062855690717697,
                -0.3857799172401428,
                0.20997287333011627
            ],
            "translation" : [
                7.358891487121582,
                4.958308696746826,
                6.925792217254639
            ]
        },
        {
            "name" : "Camera.002",
            "rotation" : [
                0.8937963247299194,
                0.09062855690717697,
                -0.3857799172401428,
                0.20997287333011627
            ],
            "translation" : [
                7.535209655761719,
                4.828973770141602,
                6.960838794708252
            ]
        },
        {
            "name" : "Camera.003",
            "rotation" : [
                0.8937963247299194,
                0.09062855690717697,
                -0.3857799172401428,
                0.20997287333011627
            ],
            "translation" : [
                7.358891487121582,
                4.958308696746826,
                6.925792217254639
            ]
        },
        {
            "name" : "Low-Poly_Models",
            "rotation" : [
                1,
                0,
                0,
                -1.3435885648505064e-07
            ]
        },
        {
            "name" : "Low-Poly_Models.001",
            "rotation" : [
                1,
                0,
                0,
                -1.3435885648505064e-07
            ]
        },
        {
            "mesh" : 0,
            "name" : "Icosphere.027",
            "rotation" : [
                1,
                0,
                0,
                -1.3435885648505064e-07
            ]
        }
    ],
    "materials" : [
        {
            "doubleSided" : true,
            "name" : "Material.106",
            "pbrMetallicRoughness" : {
                "baseColorFactor" : [
                    0.19695499539375305,
                    0.03169500082731247,
                    0.00521499989554286,
                    1
                ],
                "metallicFactor" : 0,
                "roughnessFactor" : 0.6766191720962524
            }
        },
        {
            "doubleSided" : true,
            "name" : "Material.107",
            "pbrMetallicRoughness" : {
                "baseColorFactor" : [
                    0.07427600026130676,
                    0.3815920054912567,
                    0.00812000036239624,
                    1
                ],
                "metallicFactor" : 0,
                "roughnessFactor" : 0.6766191720962524
            }
        }
    ],
    "meshes" : [
        {
            "name" : "Icosphere.027",
            "primitives" : [
                {
                    "attributes" : {
                        "POSITION" : 0,
                        "NORMAL" : 1
                    },
                    "indices" : 2,
                    "material" : 0
                },
                {
                    "attributes" : {
                        "POSITION" : 3,
                        "NORMAL" : 4
                    },
                    "indices" : 5,
                    "material" : 1
                }
            ]
        }
    ],
    "accessors" : [
        {
            "bufferView" : 0,
            "componentType" : 5126,
            "count" : 34,
            "max" : [
                0.19558393955230713,
                0.022141795605421066,
                0.20533263683319092
            ],
            "min" : [
                -0.19741523265838623,
                -0.6712841391563416,
                -0.16843140125274658
            ],
            "type" : "VEC3"
        },
        {
            "bufferView" : 1,
            "componentType" : 5126,
            "count" : 34,
            "type" : "VEC3"
        },
        {
            "bufferView" : 2,
            "componentType" : 5123,
            "count" : 48,
            "type" : "SCALAR"
        },
        {
            "bufferView" : 3,
            "componentType" : 5126,
            "count" : 240,
            "max" : [
                0.38088810443878174,
                -0.40999218821525574,
                0.4001721143722534
            ],
            "min" : [
                -0.38271892070770264,
                -3.077467918395996,
                -0.4027301073074341
            ],
            "type" : "VEC3"
        },
        {
            "bufferView" : 4,
            "componentType" : 5126,
            "count" : 240,
            "type" : "VEC3"
        },
        {
            "bufferView" : 5,
            "componentType" : 5123,
            "count" : 240,
            "type" : "SCALAR"
        }
    ],
    "bufferViews" : [
        {
            "buffer" : 0,
            "byteLength" : 408,
            "byteOffset" : 0
        },
        {
            "buffer" : 0,
            "byteLength" : 408,
            "byteOffset" : 408
        },
        {
            "buffer" : 0,
            "byteLength" : 96,
            "byteOffset" : 816
        },
        {
            "buffer" : 0,
            "byteLength" : 2880,
            "byteOffset" : 912
        },
        {
            "buffer" : 0,
            "byteLength" : 2880,
            "byteOffset" : 3792
        },
        {
            "buffer" : 0,
            "byteLength" : 480,
            "byteOffset" : 6672
        }
    ],
    "buffers" : [
        {
            "byteLength" : 7152,
            "uri" : "data:application/octet-stream;base64,"
        }
    ]
}
