{
    "asset" : {
        "generator" : "Khronos glTF Blender I/O v0.9.36",
        "version" : "2.0"
    },
    "scene" : 0,
    "scenes" : [
        {
            "name" : "Scene",
            "nodes" : [
                0
            ]
        }
    ],
    "nodes" : [
        {
            "mesh" : 0,
            "name" : "Arbre_Automne_Cylinder.003",
            "rotation" : [
                0.7071068286895752,
                0,
                0,
                0.7071067094802856
            ],
            "translation" : [
                -0.009783714078366756,
                1.766619324684143,
                0.01866442896425724
            ]
        }
    ],
    "materials" : [
        {
            "doubleSided" : true,
            "name" : "troc",
            "pbrMetallicRoughness" : {
                "baseColorFactor" : [
                    0.046243999153375626,
                    0.031637001782655716,
                    0.010962000116705894,
                    1
                ],
                "metallicFactor" : 0,
                "roughnessFactor" : 0.6732679605484009
            }
        }
    ],
    "meshes" : [
        {
            "name" : "Arbre_Automne_Cylinder.003",
            "primitives" : [
                {
                    "attributes" : {
                        "POSITION" : 0,
                        "NORMAL" : 1
                    },
                    "indices" : 2,
                    "material" : 0
                }
            ]
        }
    ],
    "accessors" : [
        {
            "bufferView" : 0,
            "componentType" : 5126,
            "count" : 720,
            "max" : [
                0.8989344239234924,
                1.0937085151672363,
                1.8865231275558472
            ],
            "min" : [
                -1.4675265550613403,
                -1.0709344148635864,
                -1.641737937927246
            ],
            "type" : "VEC3"
        },
        {
            "bufferView" : 1,
            "componentType" : 5126,
            "count" : 720,
            "type" : "VEC3"
        },
        {
            "bufferView" : 2,
            "componentType" : 5123,
            "count" : 1092,
            "type" : "SCALAR"
        }
    ],
    "bufferViews" : [
        {
            "buffer" : 0,
            "byteLength" : 8640,
            "byteOffset" : 0
        },
        {
            "buffer" : 0,
            "byteLength" : 8640,
            "byteOffset" : 8640
        },
        {
            "buffer" : 0,
            "byteLength" : 2184,
            "byteOffset" : 17280
        }
    ],
    "buffers" : [
        {
            "byteLength" : 19464,
            "uri" : "data:application/octet-stream;base64,"
        }
    ]
}
