{
    "asset" : {
        "generator" : "Khronos glTF Blender I/O v0.9.36",
        "version" : "2.0"
    },
    "scene" : 0,
    "scenes" : [
        {
            "name" : "Scene",
            "nodes" : [
                0,
                1
            ]
        }
    ],
    "nodes" : [
        {
            "name" : "Camera",
            "rotation" : [
                0.483536034822464,
                0.33687159419059753,
                -0.20870360732078552,
                0.7804827094078064
            ],
            "translation" : [
                7.358891487121582,
                4.958309173583984,
                6.925790786743164
            ]
        },
        {
            "mesh" : 0,
            "name" : "SapinHiver_Cylinder.008",
            "rotation" : [
                0.7071068286895752,
                0,
                0,
                0.7071067094802856
            ],
            "translation" : [
                -0.11968143284320831,
                2.0850162506103516,
                -0.03677418828010559
            ]
        }
    ],
    "materials" : [
        {
            "doubleSided" : true,
            "name" : "Material.008",
            "pbrMetallicRoughness" : {
                "baseColorFactor" : [
                    0.039765000343322754,
                    0.04358400031924248,
                    0.02185700088739395,
                    1
                ],
                "metallicFactor" : 0,
                "roughnessFactor" : 0.6732679605484009
            }
        },
        {
            "doubleSided" : true,
            "name" : "Material.009",
            "pbrMetallicRoughness" : {
                "baseColorFactor" : [
                    0.04208900034427643,
                    0.06400900334119797,
                    0.004424999933689833,
                    1
                ],
                "metallicFactor" : 0,
                "roughnessFactor" : 0.6732679605484009
            }
        },
        {
            "doubleSided" : true,
            "name" : "snow",
            "pbrMetallicRoughness" : {
                "baseColorFactor" : [
                    0.6114190220832825,
                    0.5835970044136047,
                    0.6399999856948853,
                    1
                ],
                "metallicFactor" : 0,
                "roughnessFactor" : 0.6732679605484009
            }
        }
    ],
    "meshes" : [
        {
            "name" : "SapinHiver_Cylinder.008",
            "primitives" : [
                {
                    "attributes" : {
                        "POSITION" : 0,
                        "NORMAL" : 1
                    },
                    "indices" : 2,
                    "material" : 0
                },
                {
                    "attributes" : {
                        "POSITION" : 3,
                        "NORMAL" : 4
                    },
                    "indices" : 5,
                    "material" : 1
                },
                {
                    "attributes" : {
                        "POSITION" : 6,
                        "NORMAL" : 7
                    },
                    "indices" : 8,
                    "material" : 2
                }
            ]
        }
    ],
    "accessors" : [
        {
            "bufferView" : 0,
            "componentType" : 5126,
            "count" : 48,
            "max" : [
                0.2230953723192215,
                0.22355735301971436,
                2.2365756034851074
            ],
            "min" : [
                -0.2230955809354782,
                -0.2226344347000122,
                0.9736964702606201
            ],
            "type" : "VEC3"
        },
        {
            "bufferView" : 1,
            "componentType" : 5126,
            "count" : 48,
            "type" : "VEC3"
        },
        {
            "bufferView" : 2,
            "componentType" : 5123,
            "count" : 84,
            "type" : "SCALAR"
        },
        {
            "bufferView" : 3,
            "componentType" : 5126,
            "count" : 400,
            "max" : [
                1.0104894638061523,
                1.0109504461288452,
                1.0738884210586548
            ],
            "min" : [
                -1.0104886293411255,
                -1.010027527809143,
                -2.7468605041503906
            ],
            "type" : "VEC3"
        },
        {
            "bufferView" : 4,
            "componentType" : 5126,
            "count" : 400,
            "type" : "VEC3"
        },
        {
            "bufferView" : 5,
            "componentType" : 5123,
            "count" : 612,
            "type" : "SCALAR"
        },
        {
            "bufferView" : 6,
            "componentType" : 5126,
            "count" : 400,
            "max" : [
                1.0104894638061523,
                1.0109504461288452,
                1.0373504161834717
            ],
            "min" : [
                -1.0104886293411255,
                -1.010027527809143,
                -2.7833995819091797
            ],
            "type" : "VEC3"
        },
        {
            "bufferView" : 7,
            "componentType" : 5126,
            "count" : 400,
            "type" : "VEC3"
        },
        {
            "bufferView" : 8,
            "componentType" : 5123,
            "count" : 612,
            "type" : "SCALAR"
        }
    ],
    "bufferViews" : [
        {
            "buffer" : 0,
            "byteLength" : 576,
            "byteOffset" : 0
        },
        {
            "buffer" : 0,
            "byteLength" : 576,
            "byteOffset" : 576
        },
        {
            "buffer" : 0,
            "byteLength" : 168,
            "byteOffset" : 1152
        },
        {
            "buffer" : 0,
            "byteLength" : 4800,
            "byteOffset" : 1320
        },
        {
            "buffer" : 0,
            "byteLength" : 4800,
            "byteOffset" : 6120
        },
        {
            "buffer" : 0,
            "byteLength" : 1224,
            "byteOffset" : 10920
        },
        {
            "buffer" : 0,
            "byteLength" : 4800,
            "byteOffset" : 12144
        },
        {
            "buffer" : 0,
            "byteLength" : 4800,
            "byteOffset" : 16944
        },
        {
            "buffer" : 0,
            "byteLength" : 1224,
            "byteOffset" : 21744
        }
    ],
    "buffers" : [
        {
            "byteLength" : 22968,
            "uri" : "data:application/octet-stream;base64,"
        }
    ]
}
