{
    "asset" : {
        "generator" : "Khronos glTF Blender I/O v0.9.36",
        "version" : "2.0"
    },
    "scene" : 0,
    "scenes" : [
        {
            "name" : "Scene",
            "nodes" : [
                0,
                1,
                2
            ]
        }
    ],
    "nodes" : [
        {
            "name" : "Camera",
            "rotation" : [
                0.483536034822464,
                0.33687159419059753,
                -0.20870360732078552,
                0.7804827094078064
            ],
            "translation" : [
                7.358891487121582,
                4.958309173583984,
                6.925790786743164
            ]
        },
        {
            "name" : "Low-Poly_Models",
            "rotation" : [
                0.7071068286895752,
                0,
                0,
                0.7071067094802856
            ]
        },
        {
            "mesh" : 0,
            "name" : "Cylinder.001",
            "rotation" : [
                0.7071068286895752,
                0,
                0,
                0.7071067094802856
            ],
            "translation" : [
                -0.11332082748413086,
                1.418217420578003,
                -0.04514741897583008
            ]
        }
    ],
    "materials" : [
        {
            "doubleSided" : true,
            "name" : "Material.008",
            "pbrMetallicRoughness" : {
                "baseColorFactor" : [
                    0.10629499703645706,
                    0.02648399956524372,
                    0,
                    1
                ],
                "metallicFactor" : 0,
                "roughnessFactor" : 0.6732679605484009
            }
        },
        {
            "doubleSided" : true,
            "name" : "Material.009",
            "pbrMetallicRoughness" : {
                "baseColorTexture" : {
                    "index" : 0,
                    "texCoord" : 0
                },
                "metallicFactor" : 0,
                "roughnessFactor" : 0.6732679605484009
            }
        }
    ],
    "meshes" : [
        {
            "name" : "Cylinder.001",
            "primitives" : [
                {
                    "attributes" : {
                        "POSITION" : 0,
                        "NORMAL" : 1
                    },
                    "indices" : 2,
                    "material" : 0
                },
                {
                    "attributes" : {
                        "POSITION" : 3,
                        "NORMAL" : 4
                    },
                    "indices" : 5,
                    "material" : 1
                }
            ]
        }
    ],
    "textures" : [
        {
            "source" : 0
        }
    ],
    "images" : [
        {
            "bufferView" : 6,
            "mimeType" : "image/png",
            "name" : "green"
        }
    ],
    "accessors" : [
        {
            "bufferView" : 0,
            "componentType" : 5126,
            "count" : 45,
            "max" : [
                0.2287449836730957,
                0.27556943893432617,
                1.4297490119934082
            ],
            "min" : [
                -0.29784202575683594,
                -0.2335186004638672,
                0.772037923336029
            ],
            "type" : "VEC3"
        },
        {
            "bufferView" : 1,
            "componentType" : 5126,
            "count" : 45,
            "type" : "VEC3"
        },
        {
            "bufferView" : 2,
            "componentType" : 5123,
            "count" : 69,
            "type" : "SCALAR"
        },
        {
            "bufferView" : 3,
            "componentType" : 5126,
            "count" : 460,
            "max" : [
                1.003960132598877,
                1.0759835243225098,
                1.001267910003662
            ],
            "min" : [
                -1.045102596282959,
                -0.9049863815307617,
                -2.6373989582061768
            ],
            "type" : "VEC3"
        },
        {
            "bufferView" : 4,
            "componentType" : 5126,
            "count" : 460,
            "type" : "VEC3"
        },
        {
            "bufferView" : 5,
            "componentType" : 5123,
            "count" : 684,
            "type" : "SCALAR"
        }
    ],
    "bufferViews" : [
        {
            "buffer" : 0,
            "byteLength" : 540,
            "byteOffset" : 0
        },
        {
            "buffer" : 0,
            "byteLength" : 540,
            "byteOffset" : 540
        },
        {
            "buffer" : 0,
            "byteLength" : 138,
            "byteOffset" : 1080
        },
        {
            "buffer" : 0,
            "byteLength" : 5520,
            "byteOffset" : 1220
        },
        {
            "buffer" : 0,
            "byteLength" : 5520,
            "byteOffset" : 6740
        },
        {
            "buffer" : 0,
            "byteLength" : 1368,
            "byteOffset" : 12260
        },
        {
            "buffer" : 0,
            "byteLength" : 15581,
            "byteOffset" : 13628
        }
    ],
    "buffers" : [
        {
            "byteLength" : 29212,
            "uri" : "data:application/octet-stream;base64,"
        }
    ]
}
