{
    "asset" : {
        "generator" : "Khronos glTF Blender I/O v0.9.36",
        "version" : "2.0"
    },
    "scene" : 0,
    "scenes" : [
        {
            "name" : "Scene",
            "nodes" : [
                0,
                1,
                2,
                3
            ]
        }
    ],
    "nodes" : [
        {
            "name" : "Low-Poly_Models",
            "rotation" : [
                0.7071068286895752,
                0,
                0,
                0.7071067094802856
            ]
        },
        {
            "mesh" : 0,
            "name" : "Icosphere_Icosphere.002",
            "rotation" : [
                0.7071068286895752,
                0,
                0,
                0.7071067094802856
            ]
        },
        {
            "mesh" : 1,
            "name" : "Icosphere.001_Icosphere.003",
            "rotation" : [
                0.7071068286895752,
                0,
                0,
                0.7071067094802856
            ]
        },
        {
            "mesh" : 2,
            "name" : "Cylinder.014",
            "rotation" : [
                0.7071068286895752,
                0,
                0,
                0.7071067094802856
            ]
        }
    ],
    "materials" : [
        {
            "doubleSided" : true,
            "name" : "Material.105",
            "pbrMetallicRoughness" : {
                "baseColorFactor" : [
                    0.2376829981803894,
                    0.6399999856948853,
                    0.010366000235080719,
                    1
                ],
                "metallicFactor" : 0,
                "roughnessFactor" : 0.6766191720962524
            }
        },
        {
            "doubleSided" : true,
            "name" : "Material.104",
            "pbrMetallicRoughness" : {
                "baseColorFactor" : [
                    0.2376829981803894,
                    0.6399999856948853,
                    0.010366000235080719,
                    1
                ],
                "metallicFactor" : 0,
                "roughnessFactor" : 0.6766191720962524
            }
        },
        {
            "doubleSided" : true,
            "name" : "Material.103",
            "pbrMetallicRoughness" : {
                "baseColorFactor" : [
                    0.14308899641036987,
                    0.03052400052547455,
                    0.0038300000596791506,
                    1
                ],
                "metallicFactor" : 0,
                "roughnessFactor" : 0.6766191720962524
            }
        }
    ],
    "meshes" : [
        {
            "name" : "Icosphere_Icosphere.002",
            "primitives" : [
                {
                    "attributes" : {
                        "POSITION" : 0,
                        "NORMAL" : 1
                    },
                    "indices" : 2,
                    "material" : 0
                }
            ]
        },
        {
            "name" : "Icosphere.001_Icosphere.003",
            "primitives" : [
                {
                    "attributes" : {
                        "POSITION" : 3,
                        "NORMAL" : 4
                    },
                    "indices" : 5,
                    "material" : 1
                }
            ]
        },
        {
            "name" : "Cylinder.014",
            "primitives" : [
                {
                    "attributes" : {
                        "POSITION" : 6,
                        "NORMAL" : 7
                    },
                    "indices" : 8,
                    "material" : 2
                }
            ]
        }
    ],
    "accessors" : [
        {
            "bufferView" : 0,
            "componentType" : 5126,
            "count" : 430,
            "max" : [
                0.8119497299194336,
                0.41833817958831787,
                -2.7502055168151855
            ],
            "min" : [
                -1.0056283473968506,
                -1.3996187448501587,
                -4.5664215087890625
            ],
            "type" : "VEC3"
        },
        {
            "bufferView" : 1,
            "componentType" : 5126,
            "count" : 430,
            "type" : "VEC3"
        },
        {
            "bufferView" : 2,
            "componentType" : 5123,
            "count" : 432,
            "type" : "SCALAR"
        },
        {
            "bufferView" : 3,
            "componentType" : 5126,
            "count" : 292,
            "max" : [
                0.4094395637512207,
                1.2158713340759277,
                -2.5393455028533936
            ],
            "min" : [
                -0.6031183004379272,
                0.20310354232788086,
                -3.5385093688964844
            ],
            "type" : "VEC3"
        },
        {
            "bufferView" : 4,
            "componentType" : 5126,
            "count" : 292,
            "type" : "VEC3"
        },
        {
            "bufferView" : 5,
            "componentType" : 5123,
            "count" : 294,
            "type" : "SCALAR"
        },
        {
            "bufferView" : 6,
            "componentType" : 5126,
            "count" : 226,
            "max" : [
                0.23620259761810303,
                0.7071387767791748,
                0.21866655349731445
            ],
            "min" : [
                -0.21918046474456787,
                -0.5828602313995361,
                -3.7748751640319824
            ],
            "type" : "VEC3"
        },
        {
            "bufferView" : 7,
            "componentType" : 5126,
            "count" : 226,
            "type" : "VEC3"
        },
        {
            "bufferView" : 8,
            "componentType" : 5123,
            "count" : 348,
            "type" : "SCALAR"
        }
    ],
    "bufferViews" : [
        {
            "buffer" : 0,
            "byteLength" : 5160,
            "byteOffset" : 0
        },
        {
            "buffer" : 0,
            "byteLength" : 5160,
            "byteOffset" : 5160
        },
        {
            "buffer" : 0,
            "byteLength" : 864,
            "byteOffset" : 10320
        },
        {
            "buffer" : 0,
            "byteLength" : 3504,
            "byteOffset" : 11184
        },
        {
            "buffer" : 0,
            "byteLength" : 3504,
            "byteOffset" : 14688
        },
        {
            "buffer" : 0,
            "byteLength" : 588,
            "byteOffset" : 18192
        },
        {
            "buffer" : 0,
            "byteLength" : 2712,
            "byteOffset" : 18780
        },
        {
            "buffer" : 0,
            "byteLength" : 2712,
            "byteOffset" : 21492
        },
        {
            "buffer" : 0,
            "byteLength" : 696,
            "byteOffset" : 24204
        }
    ],
    "buffers" : [
        {
            "byteLength" : 24900,
            "uri" : "data:application/octet-stream;base64,"
        }
    ]
}
